<?xml version="1.0"?>
<!DOCTYPE svg PUBLIC "-//W3C//DTD SVG 1.0//EN" "http://www.w3.org/TR/2001/REC-SVG-20010904/DTD/svg10.dtd">
<svg xmlns="http://www.w3.org/2000/svg" xmlns:xlink="http://www.w3.org/1999/xlink" width="1124px" height="1124px">
<g>
<path fill-rule="evenodd" fill="#a0a0a0" d="M 0.524967 138.898 L 461.512 74.1107 L 512.03 433.567 L 424.768 549.367 L 65.3125 599.885 C 65.3125 599.885 0.524967 138.898 0.524967 138.898 z" />
<path fill-rule="evenodd" fill="#a0a0a0" d="M 138.898 1123.48 L 74.1107 662.488 L 433.567 611.97 L 549.367 699.232 L 599.885 1058.69 C 599.885 1058.69 138.898 1123.48 138.898 1123.48 z" />
<path fill-rule="evenodd" fill="#a0a0a0" d="M 1123.48 985.102 L 662.488 1049.89 L 611.97 690.433 L 699.232 574.633 L 1058.69 524.115 C 1058.69 524.115 1123.48 985.102 1123.48 985.102 z" />
<path fill-rule="evenodd" fill="#a0a0a0" d="M 985.102 0.52491 L 1049.89 461.512 L 690.433 512.03 L 574.633 424.768 L 524.115 65.3124 C 524.115 65.3124 985.102 0.52491 985.102 0.52491 z" />
</g>
</svg>
