<?xml version="1.0"?>
<!DOCTYPE svg PUBLIC "-//W3C//DTD SVG 1.0//EN" "http://www.w3.org/TR/2001/REC-SVG-20010904/DTD/svg10.dtd">
<svg xmlns="http://www.w3.org/2000/svg" xmlns:xlink="http://www.w3.org/1999/xlink" width="540px" height="270px">
<defs>
<linearGradient id="fadeGrad" y2="1" x2="0">
<stop offset="0" stop-color="white" stop-opacity="1"/>
<stop offset=".3" stop-color="white" stop-opacity=".3"/>
<stop offset="1" stop-color="white" stop-opacity="0"/>
</linearGradient>

<mask id="fade" maskContentUnits="userSpaceOnUse">
<rect width="540" height="270" fill="url(#fadeGrad)"/>
</mask>
</defs>
<g mask="url(#fade)">
<rect x="5px" y="5px" width="530px" height="390px" rx="10px" ry="10px" fill="#202020" stroke="#ffffff" stroke-width="5" stroke-opacity="1" />
</g>
<g mask="url(#fade)">
<ellipse cx="45px" cy="45px" rx="9px" ry="9px" fill="#ffffff" fill-opacity="1" stroke="#ffffff" stroke-width="1" stroke-opacity="1" />
<ellipse cx="95px" cy="45px" rx="16px" ry="16px" fill="#000000" fill-opacity="0" stroke="#ffffff" stroke-width="2" stroke-opacity="1" />
<ellipse cx="45px" cy="95px" rx="16px" ry="16px" fill="#000000" fill-opacity="0" stroke="#ffffff" stroke-width="2" stroke-opacity="1" />
<ellipse cx="45px" cy="145px" rx="16px" ry="16px" fill="#000000" fill-opacity="0" stroke="#ffffff" stroke-width="2" stroke-opacity="1" />
<ellipse cx="45px" cy="195px" rx="16px" ry="16px" fill="#000000" fill-opacity="0" stroke="#ffffff" stroke-width="2" stroke-opacity="1" />
<ellipse cx="45px" cy="245px" rx="16px" ry="16px" fill="#000000" fill-opacity="0" stroke="#ffffff" stroke-width="2" stroke-opacity="1" />
<ellipse cx="145px" cy="45px" rx="16px" ry="16px" fill="#000000" fill-opacity="0" stroke="#ffffff" stroke-width="2" stroke-opacity="1" />
<ellipse cx="195px" cy="45px" rx="16px" ry="16px" fill="#000000" fill-opacity="0" stroke="#ffffff" stroke-width="2" stroke-opacity="1" />
<ellipse cx="245px" cy="45px" rx="16px" ry="16px" fill="#000000" fill-opacity="0" stroke="#ffffff" stroke-width="2" stroke-opacity="1" />
<ellipse cx="295px" cy="45px" rx="16px" ry="16px" fill="#000000" fill-opacity="0" stroke="#ffffff" stroke-width="2" stroke-opacity="1" />
<ellipse cx="345px" cy="45px" rx="16px" ry="16px" fill="#000000" fill-opacity="0" stroke="#ffffff" stroke-width="2" stroke-opacity="1" />
<ellipse cx="395px" cy="45px" rx="16px" ry="16px" fill="#000000" fill-opacity="0" stroke="#ffffff" stroke-width="2" stroke-opacity="1" />
<ellipse cx="445px" cy="45px" rx="16px" ry="16px" fill="#000000" fill-opacity="0" stroke="#ffffff" stroke-width="2" stroke-opacity="1" />
<ellipse cx="495px" cy="95px" rx="16px" ry="16px" fill="#000000" fill-opacity="0" stroke="#ffffff" stroke-width="2" stroke-opacity="1" />
<ellipse cx="495px" cy="145px" rx="16px" ry="16px" fill="#000000" fill-opacity="0" stroke="#ffffff" stroke-width="2" stroke-opacity="1" />
<ellipse cx="495px" cy="195px" rx="16px" ry="16px" fill="#000000" fill-opacity="0" stroke="#ffffff" stroke-width="2" stroke-opacity="1" />
<ellipse cx="495px" cy="245px" rx="16px" ry="16px" fill="#000000" fill-opacity="0" stroke="#ffffff" stroke-width="2" stroke-opacity="1" />
<rect x="76px" y="76px" width="38px" height="38px" fill="#000000" fill-opacity="0" stroke="#ffffff" stroke-width="2" stroke-opacity="1" />
<rect x="126px" y="76px" width="38px" height="38px" fill="#000000" fill-opacity="0" stroke="#ffffff" stroke-width="2" stroke-opacity="1" />
<rect x="176px" y="76px" width="38px" height="38px" fill="#000000" fill-opacity="0" stroke="#ffffff" stroke-width="2" stroke-opacity="1" />
<rect x="276px" y="76px" width="38px" height="38px" fill="#000000" fill-opacity="0" stroke="#ffffff" stroke-width="2" stroke-opacity="1" />
<rect x="226px" y="76px" width="38px" height="38px" fill="#000000" fill-opacity="0" stroke="#ffffff" stroke-width="2" stroke-opacity="1" />
<rect x="326px" y="76px" width="38px" height="38px" fill="#000000" fill-opacity="0" stroke="#ffffff" stroke-width="2" stroke-opacity="1" />
<rect x="376px" y="76px" width="38px" height="38px" fill="#000000" fill-opacity="0" stroke="#ffffff" stroke-width="2" stroke-opacity="1" />
<rect x="426px" y="76px" width="38px" height="38px" fill="#000000" fill-opacity="0" stroke="#ffffff" stroke-width="2" stroke-opacity="1" />
<rect x="76px" y="126px" width="38px" height="38px" fill="#000000" fill-opacity="0" stroke="#ffffff" stroke-width="2" stroke-opacity="1" />
<rect x="126px" y="126px" width="38px" height="38px" fill="#000000" fill-opacity="0" stroke="#ffffff" stroke-width="2" stroke-opacity="1" />
<rect x="176px" y="126px" width="38px" height="38px" fill="#000000" fill-opacity="0" stroke="#ffffff" stroke-width="2" stroke-opacity="1" />
<rect x="276px" y="126px" width="38px" height="38px" fill="#000000" fill-opacity="0" stroke="#ffffff" stroke-width="2" stroke-opacity="1" />
<rect x="226px" y="126px" width="38px" height="38px" fill="#000000" fill-opacity="0" stroke="#ffffff" stroke-width="2" stroke-opacity="1" />
<rect x="326px" y="126px" width="38px" height="38px" fill="#000000" fill-opacity="0" stroke="#ffffff" stroke-width="2" stroke-opacity="1" />
<rect x="376px" y="126px" width="38px" height="38px" fill="#000000" fill-opacity="0" stroke="#ffffff" stroke-width="2" stroke-opacity="1" />
<rect x="426px" y="126px" width="38px" height="38px" fill="#000000" fill-opacity="0" stroke="#ffffff" stroke-width="2" stroke-opacity="1" />
<rect x="76px" y="176px" width="38px" height="38px" fill="#000000" fill-opacity="0" stroke="#ffffff" stroke-width="2" stroke-opacity="1" />
<rect x="126px" y="176px" width="38px" height="38px" fill="#000000" fill-opacity="0" stroke="#ffffff" stroke-width="2" stroke-opacity="1" />
<rect x="176px" y="176px" width="38px" height="38px" fill="#000000" fill-opacity="0" stroke="#ffffff" stroke-width="2" stroke-opacity="1" />
<rect x="276px" y="176px" width="38px" height="38px" fill="#000000" fill-opacity="0" stroke="#ffffff" stroke-width="2" stroke-opacity="1" />
<rect x="226px" y="176px" width="38px" height="38px" fill="#000000" fill-opacity="0" stroke="#ffffff" stroke-width="2" stroke-opacity="1" />
<rect x="326px" y="176px" width="38px" height="38px" fill="#000000" fill-opacity="0" stroke="#ffffff" stroke-width="2" stroke-opacity="1" />
<rect x="376px" y="176px" width="38px" height="38px" fill="#000000" fill-opacity="0" stroke="#ffffff" stroke-width="2" stroke-opacity="1" />
<rect x="426px" y="176px" width="38px" height="38px" fill="#000000" fill-opacity="0" stroke="#ffffff" stroke-width="2" stroke-opacity="1" />
<rect x="76px" y="226px" width="38px" height="38px" fill="#000000" fill-opacity="0" stroke="#ffffff" stroke-width="2" stroke-opacity="1" />
<rect x="126px" y="226px" width="38px" height="38px" fill="#000000" fill-opacity="0" stroke="#ffffff" stroke-width="2" stroke-opacity="1" />
<rect x="176px" y="226px" width="38px" height="38px" fill="#000000" fill-opacity="0" stroke="#ffffff" stroke-width="2" stroke-opacity="1" />
<rect x="276px" y="226px" width="38px" height="38px" fill="#000000" fill-opacity="0" stroke="#ffffff" stroke-width="2" stroke-opacity="1" />
<rect x="226px" y="226px" width="38px" height="38px" fill="#000000" fill-opacity="0" stroke="#ffffff" stroke-width="2" stroke-opacity="1" />
<rect x="326px" y="226px" width="38px" height="38px" fill="#000000" fill-opacity="0" stroke="#ffffff" stroke-width="2" stroke-opacity="1" />
<rect x="376px" y="226px" width="38px" height="38px" fill="#000000" fill-opacity="0" stroke="#ffffff" stroke-width="2" stroke-opacity="1" />
<rect x="426px" y="226px" width="38px" height="38px" fill="#000000" fill-opacity="0" stroke="#ffffff" stroke-width="2" stroke-opacity="1" />
</g>
</svg>
